<mxfile host="Electron" modified="2024-05-09T06:26:56.411Z" agent="Mozilla/5.0 (Windows NT 10.0; Win64; x64) AppleWebKit/537.36 (KHTML, like Gecko) draw.io/24.2.5 Chrome/120.0.6099.109 Electron/28.1.0 Safari/537.36" etag="Kuj7AogSQx1sQovgaJQZ" version="24.2.5" type="device">
  <diagram name="Page-1" id="03018318-947c-dd8e-b7a3-06fadd420f32">
    <mxGraphModel dx="1500" dy="887" grid="1" gridSize="10" guides="1" tooltips="1" connect="1" arrows="1" fold="1" page="1" pageScale="1" pageWidth="1100" pageHeight="850" background="none" math="0" shadow="0">
      <root>
        <mxCell id="0" />
        <mxCell id="1" parent="0" />
        <mxCell id="677b7b8949515195-2" value="LOGO" style="whiteSpace=wrap;html=1;rounded=0;shadow=0;labelBackgroundColor=none;strokeWidth=1;fontFamily=Verdana;fontSize=28;align=center;comic=1;" parent="1" vertex="1">
          <mxGeometry x="40" y="60" width="190" height="50" as="geometry" />
        </mxCell>
        <mxCell id="677b7b8949515195-3" value="Search" style="strokeWidth=1;shadow=0;dashed=0;align=center;html=1;shape=mxgraph.mockup.forms.searchBox;strokeColor=#999999;mainText=;strokeColor2=#008cff;fontColor=#666666;fontSize=17;align=left;spacingLeft=3;rounded=0;labelBackgroundColor=none;comic=1;" parent="1" vertex="1">
          <mxGeometry x="840" y="95" width="220" height="30" as="geometry" />
        </mxCell>
        <mxCell id="W7vusez4A3Ag8EWWwzbc-5" value="&lt;font style=&quot;font-size: 18px;&quot; color=&quot;#0a0a0a&quot;&gt;Process&lt;/font&gt;" style="whiteSpace=wrap;html=1;dashed=0;align=center;fontSize=12;shape=rect;fillColor=#e0e0e0;strokeColor=none;fontStyle=1;shadow=1" vertex="1" parent="1">
          <mxGeometry x="220" y="160" width="180" height="60" as="geometry" />
        </mxCell>
        <mxCell id="W7vusez4A3Ag8EWWwzbc-6" value="&lt;font color=&quot;#030303&quot; style=&quot;font-size: 18px;&quot;&gt;Services&lt;/font&gt;" style="whiteSpace=wrap;html=1;dashed=0;align=center;fontSize=12;shape=rect;fillColor=#e0e0e0;strokeColor=none;fontStyle=1;shadow=1" vertex="1" parent="1">
          <mxGeometry x="730" y="160" width="150" height="60" as="geometry" />
        </mxCell>
        <mxCell id="W7vusez4A3Ag8EWWwzbc-7" value="&lt;font style=&quot;font-size: 18px;&quot; color=&quot;#080808&quot;&gt;Startup Apps&lt;/font&gt;" style="whiteSpace=wrap;html=1;dashed=0;align=center;fontSize=12;shape=rect;fillColor=#e0e0e0;strokeColor=none;fontStyle=1;shadow=1" vertex="1" parent="1">
          <mxGeometry x="570" y="160" width="150" height="60" as="geometry" />
        </mxCell>
        <mxCell id="W7vusez4A3Ag8EWWwzbc-8" value="&lt;font style=&quot;font-size: 18px;&quot; color=&quot;#000000&quot;&gt;Performance&lt;/font&gt;" style="whiteSpace=wrap;html=1;dashed=0;align=center;fontSize=12;shape=rect;fillColor=#e0e0e0;strokeColor=none;fontStyle=1;shadow=1" vertex="1" parent="1">
          <mxGeometry x="410" y="160" width="150" height="60" as="geometry" />
        </mxCell>
        <mxCell id="W7vusez4A3Ag8EWWwzbc-9" value="&lt;font color=&quot;#050505&quot; style=&quot;font-size: 18px;&quot;&gt;Networking&lt;/font&gt;" style="whiteSpace=wrap;html=1;dashed=0;align=center;fontSize=12;shape=rect;fillColor=#e0e0e0;strokeColor=none;fontStyle=1;shadow=1" vertex="1" parent="1">
          <mxGeometry x="890" y="160" width="150" height="60" as="geometry" />
        </mxCell>
        <mxCell id="W7vusez4A3Ag8EWWwzbc-15" value="" style="shape=internalStorage;whiteSpace=wrap;html=1;backgroundOutline=1;" vertex="1" parent="1">
          <mxGeometry x="55" y="240" width="990" height="590" as="geometry" />
        </mxCell>
        <mxCell id="W7vusez4A3Ag8EWWwzbc-72" value="" style="endArrow=none;html=1;rounded=0;" edge="1" parent="1">
          <mxGeometry width="50" height="50" relative="1" as="geometry">
            <mxPoint x="1060" y="140" as="sourcePoint" />
            <mxPoint x="40" y="140" as="targetPoint" />
          </mxGeometry>
        </mxCell>
        <mxCell id="W7vusez4A3Ag8EWWwzbc-75" value="&lt;font color=&quot;#0a0a0a&quot;&gt;&lt;span style=&quot;font-size: 18px;&quot;&gt;System&lt;/span&gt;&lt;/font&gt;" style="whiteSpace=wrap;html=1;dashed=0;align=center;fontSize=12;shape=rect;fillColor=#e0e0e0;strokeColor=none;fontStyle=1;shadow=1" vertex="1" parent="1">
          <mxGeometry x="60" y="160" width="150" height="60" as="geometry" />
        </mxCell>
      </root>
    </mxGraphModel>
  </diagram>
</mxfile>
